<?xml version="1.0" standalone="no"?>
<!DOCTYPE svg PUBLIC "-//W3C//DTD SVG 20010904//EN"
 "http://www.w3.org/TR/2001/REC-SVG-20010904/DTD/svg10.dtd">
<svg version="1.0" xmlns="http://www.w3.org/2000/svg"
 width="1120.000000pt" height="1120.000000pt" viewBox="0 0 1120.000000 1120.000000"
 preserveAspectRatio="xMidYMid meet">
<metadata>
Created by potrace 1.11, written by Peter Selinger 2001-2013
</metadata>
<g transform="translate(0.000000,1120.000000) scale(0.100000,-0.100000)"
fill="#000000" stroke="none">
<path d="M5509 10076 c-3 -3 -17 -7 -32 -10 -15 -3 -39 -8 -53 -11 -15 -3 -36
-12 -48 -20 -11 -8 -27 -15 -36 -15 -48 -2 -241 -181 -256 -237 -4 -13 -10
-23 -15 -23 -5 0 -8 -3 -7 -7 1 -5 -8 -29 -20 -55 -20 -45 -31 -92 -37 -155
-1 -17 -6 -36 -9 -42 -4 -6 -4 -11 1 -11 4 0 9 -29 9 -65 1 -35 5 -72 9 -82 5
-10 10 -28 12 -40 2 -12 18 -50 36 -86 80 -158 205 -263 380 -317 93 -29 276
-19 372 21 17 7 32 13 35 14 32 8 146 90 195 140 42 43 119 181 130 234 3 12
8 31 11 44 3 12 7 63 9 114 3 94 -16 199 -46 253 -7 14 -14 27 -14 30 -4 18
-30 60 -37 60 -4 0 -8 6 -8 13 0 7 -8 20 -17 29 -10 9 -34 33 -53 53 -37 40
-162 125 -183 125 -7 0 -17 4 -22 8 -22 19 -106 35 -201 38 -55 2 -103 2 -105
0z"/>
<path d="M568 8884 c-6 -5 -20 -8 -93 -19 -97 -14 -237 -93 -315 -178 -44 -47
-50 -56 -50 -67 0 -5 -4 -10 -8 -10 -8 0 -40 -60 -43 -78 0 -4 -5 -12 -11 -19
-5 -7 -18 -45 -29 -85 -38 -147 -10 -336 68 -457 38 -59 44 -66 106 -128 34
-35 155 -116 177 -119 3 0 32 -9 64 -18 33 -10 87 -20 120 -22 34 -1 63 -4 66
-5 3 -1 9 -1 13 0 4 1 24 4 45 7 71 10 168 43 227 79 33 20 61 41 63 46 2 5 8
9 12 9 20 0 140 143 140 166 0 8 4 14 9 14 5 0 12 10 16 23 4 12 9 27 11 32
48 133 53 286 14 410 -72 226 -290 400 -516 410 -34 2 -67 6 -72 9 -5 3 -11 3
-14 0z"/>
<path d="M10579 8886 c-2 -2 -22 -6 -44 -10 -162 -23 -288 -89 -389 -204 -39
-45 -86 -119 -86 -137 0 -8 -4 -15 -8 -15 -13 0 -43 -130 -49 -208 -6 -100 18
-215 66 -305 41 -80 58 -103 115 -156 21 -20 44 -41 50 -47 11 -10 127 -80
136 -81 3 -1 30 -8 60 -16 55 -16 126 -30 145 -28 6 0 37 2 70 4 96 6 228 51
278 95 9 8 17 12 17 8 0 -4 6 -1 14 6 8 8 27 25 43 39 51 42 147 176 158 219
1 3 5 12 8 20 24 59 36 144 33 235 -5 110 -11 137 -61 240 -93 190 -279 318
-482 330 -29 2 -56 6 -61 9 -5 3 -11 4 -13 2z"/>
<path d="M5549 8416 c-8 -6 -37 -46 -64 -90 -28 -43 -57 -89 -65 -102 -29 -46
-195 -289 -201 -294 -3 -3 -21 -27 -39 -55 -19 -27 -38 -54 -42 -60 -43 -54
-148 -197 -148 -202 0 -3 -9 -15 -20 -27 -11 -11 -56 -68 -101 -126 -45 -58
-87 -109 -93 -115 -6 -5 -27 -30 -46 -55 -19 -25 -44 -55 -55 -66 -11 -12 -45
-50 -75 -84 -116 -132 -358 -380 -371 -380 -5 0 -9 -7 -9 -15 0 -8 -4 -15 -9
-15 -5 0 -30 -20 -57 -45 -26 -25 -49 -45 -50 -45 -4 0 -49 -40 -89 -77 -13
-13 -28 -23 -34 -23 -5 0 -11 -3 -13 -8 -1 -4 -25 -25 -53 -47 -27 -22 -59
-48 -69 -57 -11 -10 -23 -18 -27 -18 -4 0 -14 -6 -21 -13 -19 -19 -203 -138
-273 -177 -66 -36 -223 -118 -231 -119 -2 0 -20 -8 -40 -16 -20 -8 -38 -15
-40 -15 -1 0 -15 -5 -31 -12 -15 -6 -32 -12 -38 -14 -5 -2 -30 -10 -55 -19
-25 -9 -52 -18 -60 -20 -231 -54 -320 -66 -475 -67 -55 0 -120 3 -145 6 -97
13 -127 18 -170 28 -25 5 -56 12 -69 14 -13 3 -34 10 -45 16 -12 6 -23 11 -26
10 -15 -5 -202 68 -212 83 -4 5 -8 7 -8 3 0 -4 -15 1 -32 11 -18 10 -60 33
-93 51 -33 18 -94 56 -135 84 -77 51 -89 60 -119 86 -9 8 -32 27 -51 41 -123
94 -319 298 -457 474 -54 70 -143 194 -143 200 0 3 -8 14 -17 25 -10 11 -36
51 -59 88 -35 57 -46 67 -72 70 -50 5 -60 -28 -38 -125 10 -43 19 -85 21 -93
2 -8 13 -52 24 -97 12 -45 21 -91 21 -102 0 -12 5 -21 11 -21 5 0 7 -4 4 -10
-3 -5 -1 -29 6 -52 6 -24 13 -50 14 -58 3 -14 31 -126 40 -160 5 -21 34 -150
41 -180 2 -14 7 -32 10 -40 3 -8 8 -26 10 -40 3 -14 10 -43 16 -65 5 -22 12
-51 15 -65 2 -14 9 -43 15 -65 5 -22 11 -47 13 -55 2 -8 8 -35 15 -60 6 -25
12 -54 14 -65 2 -11 14 -60 26 -110 30 -124 31 -127 35 -150 2 -11 15 -65 29
-120 14 -55 27 -111 30 -125 2 -14 5 -25 6 -25 1 0 4 -13 6 -29 3 -16 12 -55
20 -85 8 -31 17 -65 19 -76 3 -11 9 -41 15 -66 6 -26 13 -55 15 -65 2 -11 4
-19 5 -19 2 0 5 -15 14 -60 3 -16 15 -66 26 -110 12 -44 23 -91 26 -105 4 -22
8 -39 21 -90 2 -8 5 -22 7 -30 1 -8 5 -26 9 -40 11 -42 78 -323 83 -350 3 -14
23 -99 46 -190 22 -91 41 -174 43 -185 1 -11 3 -20 4 -20 2 0 4 -11 7 -25 2
-14 8 -41 13 -60 11 -38 59 -239 67 -280 3 -14 10 -43 16 -65 5 -22 12 -48 13
-58 2 -9 11 -44 19 -78 9 -33 16 -69 16 -79 0 -10 5 -22 12 -26 6 -4 1808 -8
4004 -8 l3994 -1 15 65 c18 75 23 97 29 125 2 11 11 47 19 80 9 33 18 71 21
85 2 14 14 63 26 110 12 47 22 94 24 105 1 11 5 25 8 30 4 6 9 30 11 52 3 23
8 46 11 51 3 4 7 19 10 33 2 13 14 62 26 109 11 47 23 96 26 110 3 14 7 33 10
42 3 10 7 28 10 40 4 22 9 48 18 86 2 9 16 64 31 122 14 58 28 116 30 130 2
14 9 40 14 58 5 18 10 35 10 37 1 3 1 6 2 8 1 3 7 29 12 57 3 14 10 45 16 70
7 25 13 54 15 66 2 11 5 25 8 30 4 5 9 25 12 44 3 19 10 50 15 68 5 18 10 35
10 37 1 3 1 6 2 8 0 1 3 13 5 26 2 14 12 52 20 85 9 34 18 72 21 85 2 14 21
97 43 185 42 176 52 224 50 228 -1 2 3 16 9 31 6 15 13 42 16 60 3 18 11 50
16 72 6 22 13 48 15 57 6 28 11 48 29 123 9 39 19 81 21 95 3 14 10 43 16 65
6 22 12 49 14 60 2 11 10 45 18 75 8 30 17 66 20 80 3 14 12 52 20 86 8 34 17
72 20 85 2 13 9 44 15 69 7 25 13 52 15 60 14 55 46 194 50 212 2 13 17 73 31
133 15 61 28 115 29 120 1 6 4 15 7 20 4 6 5 26 3 44 -6 71 -88 88 -124 27
-10 -17 -22 -35 -27 -41 -4 -5 -28 -41 -53 -80 -101 -158 -257 -353 -400 -500
-110 -113 -130 -131 -310 -275 -47 -38 -130 -90 -130 -83 0 5 -4 3 -8 -3 -13
-20 -233 -138 -274 -146 -7 -2 -15 -5 -18 -8 -6 -6 -103 -40 -129 -45 -9 -2
-28 -8 -43 -13 -14 -6 -52 -16 -85 -21 -32 -6 -69 -13 -83 -16 -14 -3 -54 -7
-89 -10 -35 -2 -66 -6 -68 -9 -3 -3 -14 -1 -24 5 -11 5 -19 6 -19 1 0 -4 -21
-7 -47 -6 -108 6 -216 14 -222 18 -3 2 -31 7 -61 11 -30 4 -59 9 -63 12 -5 3
-23 7 -40 10 -18 3 -77 20 -132 39 -55 19 -107 36 -116 38 -9 3 -35 14 -57 25
-23 12 -47 21 -55 21 -7 0 -18 5 -25 12 -6 6 -17 13 -24 14 -12 2 -114 57
-211 112 -21 12 -86 55 -144 95 -58 39 -113 77 -122 82 -9 6 -18 12 -21 15 -3
3 -18 16 -35 28 -223 170 -467 402 -725 691 -86 97 -79 89 -130 151 -25 30
-47 57 -50 60 -9 8 -183 231 -230 295 -25 33 -47 62 -50 65 -16 15 -210 293
-210 301 0 5 -4 9 -10 9 -5 0 -10 5 -10 10 0 6 -8 20 -18 31 -11 10 -25 32
-33 47 -8 15 -17 29 -20 32 -12 11 -109 161 -109 169 0 5 -4 11 -8 13 -4 2
-18 20 -31 41 -12 20 -28 38 -34 38 -7 1 -21 3 -33 4 -11 1 -27 -3 -35 -9z"/>
<path d="M1610 2396 c-7 -7 4 -55 27 -116 3 -8 7 -20 8 -26 4 -19 66 -218 73
-234 3 -8 7 -19 7 -25 1 -5 4 -17 7 -25 3 -8 18 -51 33 -95 81 -239 300 -413
541 -429 29 -2 57 -7 63 -10 5 -4 12 -2 15 2 6 10 48 8 65 -2 5 -4 12 -2 16 3
4 7 15 7 30 1 14 -5 25 -6 25 -2 0 4 18 7 40 7 22 0 40 -3 40 -7 0 -4 11 -3
25 2 16 6 25 6 25 0 0 -6 9 -6 24 0 15 5 27 5 34 -2 7 -7 16 -7 29 1 14 7 23
7 30 0 8 -8 13 -8 17 0 4 7 15 7 30 1 13 -5 26 -7 29 -4 9 9 62 11 85 2 12 -4
22 -4 22 2 0 5 12 5 28 1 15 -5 37 -4 50 0 13 5 22 4 22 -1 0 -6 9 -6 25 0 16
6 25 6 25 0 0 -6 9 -6 25 0 13 5 27 6 29 1 3 -4 26 -5 51 -1 25 4 47 4 50 1 4
-7 85 -5 92 3 3 3 16 1 29 -4 14 -6 24 -6 24 0 0 5 12 5 30 0 18 -5 32 -5 36
1 3 5 12 6 21 0 9 -4 31 -5 49 -1 19 4 36 4 39 -1 3 -4 17 -4 30 1 16 6 25 6
25 0 0 -6 9 -6 23 -1 12 4 33 5 47 1 14 -4 35 -3 48 1 13 5 22 5 22 -1 0 -6 9
-6 25 0 15 6 26 6 30 -1 4 -6 13 -6 23 0 9 5 26 5 39 0 14 -5 23 -5 23 1 0 5
12 5 28 1 15 -5 37 -4 50 0 13 5 22 4 22 -1 0 -6 9 -6 25 0 16 6 25 6 25 0 0
-6 9 -6 25 0 13 5 26 6 29 2 5 -8 58 -8 72 0 5 3 18 2 29 -2 11 -4 30 -4 42 1
13 5 25 4 28 -2 4 -5 12 -6 18 -2 16 10 38 10 59 1 9 -5 19 -4 23 2 4 6 15 6
30 0 14 -5 25 -6 25 -2 0 4 18 7 40 7 22 0 40 -3 40 -7 0 -4 11 -3 25 2 16 6
25 6 25 0 0 -6 9 -6 24 0 15 5 27 5 34 -2 7 -7 16 -7 29 1 14 7 23 7 30 0 8
-8 13 -8 17 0 4 7 15 7 30 1 13 -5 26 -7 29 -4 9 9 62 11 85 2 12 -4 22 -4 22
2 0 5 12 5 28 1 15 -5 37 -4 50 0 13 5 22 4 22 -1 0 -6 9 -6 25 0 16 6 25 6
25 0 0 -6 9 -6 25 0 13 5 27 6 29 1 3 -4 26 -5 51 -1 25 4 47 4 50 1 4 -7 85
-5 92 3 3 3 16 1 29 -4 14 -6 24 -6 24 0 0 5 12 5 30 0 18 -5 32 -5 36 1 3 5
12 6 21 0 9 -4 31 -5 49 -1 19 4 36 4 39 -1 3 -4 17 -4 30 1 16 6 25 6 25 0 0
-6 9 -6 23 -1 12 4 33 5 47 1 14 -4 35 -3 48 1 13 5 22 5 22 -1 0 -6 9 -6 25
0 15 6 26 6 30 -1 4 -6 13 -6 23 0 9 5 26 5 39 0 14 -5 23 -5 23 1 0 5 12 5
28 1 15 -5 37 -4 50 0 13 5 22 4 22 -1 0 -6 9 -6 25 0 16 6 25 6 25 0 0 -6 9
-6 25 0 13 5 26 6 29 2 5 -8 58 -8 72 0 5 3 18 2 29 -2 11 -4 30 -4 42 1 13 5
25 4 28 -2 4 -5 12 -6 18 -2 16 10 38 10 59 1 9 -5 19 -4 23 2 4 6 15 6 30 0
14 -5 25 -6 25 -2 0 4 18 7 40 7 22 0 40 -3 40 -7 0 -4 11 -3 25 2 16 6 25 6
25 0 0 -6 9 -6 24 0 15 5 27 5 34 -2 7 -7 16 -7 29 1 14 7 23 7 30 0 8 -8 13
-8 17 0 4 7 15 7 30 1 13 -5 26 -7 29 -4 9 9 62 11 85 2 12 -4 22 -4 22 2 0 5
12 5 28 1 15 -5 37 -4 50 0 13 5 22 4 22 -1 0 -6 9 -6 25 0 16 6 25 6 25 0 0
-6 9 -6 25 0 13 5 27 6 29 1 3 -4 26 -5 51 -1 25 4 47 4 50 1 4 -7 85 -5 92 3
3 3 16 1 29 -4 14 -6 24 -6 24 0 0 5 12 5 30 0 18 -5 32 -5 36 1 3 5 12 6 21
0 9 -4 31 -5 49 -1 19 4 36 4 39 -1 3 -4 17 -4 30 1 16 6 25 6 25 0 0 -6 9 -6
23 -1 12 4 33 5 47 1 14 -4 35 -3 48 1 13 5 22 5 22 -1 0 -6 9 -6 25 0 15 6
26 6 30 -1 4 -6 13 -6 23 0 9 5 26 5 39 0 14 -5 23 -5 23 1 0 5 12 5 28 1 15
-5 37 -4 50 0 13 5 22 4 22 -1 0 -6 9 -6 25 0 16 6 25 6 25 0 0 -6 9 -6 25 0
13 5 26 6 29 2 5 -8 58 -8 72 0 5 3 18 2 29 -2 11 -4 30 -4 42 1 13 5 25 4 28
-2 4 -5 12 -6 18 -2 16 10 38 10 59 1 9 -5 19 -4 23 2 4 6 15 6 30 0 14 -5 25
-6 25 -2 0 4 18 7 40 7 22 0 40 -3 40 -7 0 -4 11 -3 25 2 16 6 25 6 25 0 0 -6
9 -6 24 0 15 5 27 5 34 -2 7 -7 16 -7 29 1 14 7 23 7 30 0 8 -8 13 -8 17 0 4
7 15 7 30 1 13 -5 26 -7 29 -4 9 9 62 11 85 2 13 -4 22 -4 22 3 0 6 5 7 10 4
39 -24 318 12 354 46 6 5 16 9 24 9 25 0 152 93 204 149 40 44 110 148 114
171 0 3 6 19 13 35 8 17 19 50 27 75 7 25 27 90 44 145 17 55 32 105 33 110 2
6 6 16 10 23 5 6 5 12 1 12 -3 0 -1 7 6 15 7 8 10 15 7 15 -4 0 1 19 9 43 9
23 17 50 19 60 2 9 7 22 10 27 9 15 -37 29 -57 18 -10 -5 -18 -5 -18 -1 0 4
-11 8 -25 8 -14 0 -25 -2 -25 -5 0 -3 -18 -5 -40 -5 -22 0 -40 2 -40 5 0 7
-116 3 -129 -4 -6 -4 -11 -4 -11 1 0 4 -41 8 -90 8 -50 0 -90 -4 -90 -8 0 -4
-8 -3 -18 2 -11 6 -24 6 -35 0 -10 -6 -17 -6 -17 -1 0 5 -17 6 -40 2 -22 -4
-42 -5 -44 -1 -5 8 -59 6 -72 -2 -6 -3 -16 -2 -24 3 -8 5 -22 5 -32 -1 -10 -5
-18 -6 -18 -2 0 9 -134 8 -156 -1 -7 -3 -15 -2 -18 2 -5 8 -58 8 -72 -1 -6 -3
-16 -2 -24 3 -8 5 -22 5 -32 -1 -10 -5 -18 -6 -18 -2 0 9 -134 8 -156 -1 -7
-3 -15 -2 -18 2 -5 8 -58 8 -72 -1 -6 -3 -16 -2 -24 3 -8 5 -22 5 -32 -1 -10
-5 -18 -6 -18 -2 0 9 -134 8 -156 -1 -7 -3 -15 -2 -18 2 -5 8 -58 8 -72 -1 -6
-3 -16 -2 -24 3 -8 5 -22 5 -32 -1 -10 -5 -18 -6 -18 -2 0 8 -145 7 -167 -1
-7 -3 -13 -1 -13 4 0 5 -13 5 -30 0 -16 -5 -30 -6 -30 -2 0 8 -53 8 -66 -1 -6
-3 -16 -2 -24 3 -8 5 -21 5 -31 0 -9 -5 -19 -7 -22 -4 -9 9 -117 10 -117 1 0
-4 -8 -3 -18 2 -11 6 -24 6 -35 0 -9 -6 -17 -6 -17 -1 0 5 -20 6 -45 2 -25 -4
-45 -4 -45 -1 0 3 -13 6 -30 6 -16 0 -30 -3 -30 -7 0 -4 -10 -4 -23 1 -14 5
-30 5 -40 0 -9 -6 -17 -6 -17 -2 0 4 -41 8 -90 8 -50 0 -90 -4 -90 -8 0 -4 -8
-3 -18 2 -11 6 -24 6 -35 0 -9 -6 -17 -6 -17 -1 0 5 -20 6 -45 2 -25 -4 -45
-4 -45 -1 0 8 -114 6 -126 -2 -6 -3 -16 -2 -24 3 -8 5 -21 5 -30 0 -9 -5 -22
-5 -28 -1 -7 4 -35 4 -62 1 -28 -4 -50 -3 -50 1 0 4 -14 4 -30 -1 -16 -5 -30
-6 -30 -2 0 8 -53 8 -66 -1 -6 -3 -16 -2 -24 3 -8 5 -21 5 -31 0 -9 -5 -19 -7
-22 -4 -9 9 -117 10 -117 1 0 -4 -8 -3 -18 2 -11 6 -24 6 -35 0 -9 -6 -17 -6
-17 -1 0 5 -20 6 -45 2 -25 -4 -45 -4 -45 -1 0 3 -13 6 -30 6 -16 0 -30 -3
-30 -7 0 -4 -10 -4 -23 1 -14 5 -30 5 -40 0 -9 -6 -17 -6 -17 -2 0 4 -41 8
-90 8 -50 0 -90 -4 -90 -8 0 -4 -8 -3 -18 2 -11 6 -24 6 -35 0 -9 -6 -17 -6
-17 -1 0 5 -20 6 -45 2 -25 -4 -45 -4 -45 -1 0 8 -114 6 -126 -2 -6 -3 -16 -2
-24 3 -8 5 -21 5 -30 0 -9 -5 -22 -5 -28 -1 -7 4 -33 5 -58 1 -24 -4 -46 -4
-48 -1 -5 8 -59 6 -72 -2 -6 -3 -16 -2 -24 3 -8 5 -22 5 -32 -1 -10 -5 -18 -6
-18 -2 0 9 -134 8 -156 -1 -7 -3 -15 -2 -18 2 -5 8 -58 8 -72 -1 -6 -3 -16 -2
-24 3 -8 5 -22 5 -32 -1 -10 -5 -18 -6 -18 -2 0 9 -134 8 -156 -1 -7 -3 -15
-2 -18 2 -5 8 -58 8 -72 -1 -6 -3 -16 -2 -24 3 -8 5 -22 5 -32 -1 -10 -5 -18
-6 -18 -2 0 9 -134 8 -156 -1 -7 -3 -15 -2 -18 2 -5 8 -58 8 -72 -1 -6 -3 -16
-2 -24 3 -8 5 -22 5 -32 -1 -10 -5 -18 -6 -18 -2 0 4 -41 8 -90 8 -50 0 -90
-4 -90 -8 0 -4 -8 -3 -18 2 -11 6 -24 6 -35 0 -9 -6 -17 -6 -17 -1 0 5 -20 6
-45 2 -25 -4 -45 -4 -45 -1 0 3 -13 6 -30 6 -16 0 -30 -3 -30 -7 0 -4 -10 -4
-23 1 -14 5 -30 5 -40 0 -9 -6 -17 -6 -17 -2 0 4 -41 8 -90 8 -50 0 -90 -4
-90 -8 0 -4 -8 -3 -18 2 -11 6 -24 6 -35 0 -9 -6 -17 -6 -17 -1 0 5 -20 6 -45
2 -25 -4 -45 -4 -45 -1 0 8 -114 6 -126 -2 -6 -3 -16 -2 -24 3 -8 5 -21 5 -31
0 -9 -5 -19 -7 -22 -4 -9 9 -117 10 -117 1 0 -4 -8 -3 -18 2 -11 6 -24 6 -35
0 -9 -6 -17 -6 -17 -1 0 5 -20 6 -45 2 -25 -4 -45 -4 -45 -1 0 3 -13 6 -30 6
-16 0 -30 -3 -30 -7 0 -4 -10 -4 -23 1 -14 5 -30 5 -40 0 -9 -6 -17 -6 -17 -2
0 4 -41 8 -90 8 -50 0 -90 -4 -90 -8 0 -4 -8 -3 -18 2 -11 6 -24 6 -35 0 -9
-6 -17 -6 -17 -1 0 5 -20 6 -45 2 -25 -4 -45 -4 -45 -1 0 8 -114 6 -126 -2 -6
-3 -16 -2 -24 3 -8 5 -21 5 -31 0 -9 -5 -19 -7 -22 -4 -9 9 -117 10 -117 1 0
-4 -8 -3 -18 2 -11 6 -24 6 -35 0 -11 -7 -17 -7 -17 0 0 6 -11 6 -29 1 -15 -4
-34 -4 -41 0 -7 5 -24 4 -37 -1 -12 -5 -23 -5 -23 -1 0 10 -49 9 -60 -2z"/>
</g>
</svg>
