<svg width="24" height="24" viewBox="0 0 24 24" fill="none" xmlns="http://www.w3.org/2000/svg"><path d="M11.9999 0C5.3832 0 0 5.383 0 11.9999S5.3832 24 11.9999 24c6.6168 0 12-5.3832 12-12.0001 0-6.6168-5.3831-11.9999-12-11.9999zm6.8906 9.973l-7.5389 7.539a1.6857 1.6857 0 0 1-1.2.497 1.6856 1.6856 0 0 1-1.2-.497l-3.8422-3.8423a1.6858 1.6858 0 0 1-.4971-1.1999c0-.4535.1765-.8796.497-1.2001a1.6853 1.6853 0 0 1 1.2-.4971c.4533 0 .8795.1765 1.2.4972l2.6422 2.6421 6.3389-6.3389a1.6855 1.6855 0 0 1 1.1999-.497c.4533 0 .8794.1764 1.2.497.6619.662.6619 1.7384.0002 2.4z" fill="#FC0"/></svg>