<svg width="22" height="23" viewBox="0 0 22 23" fill="none" xmlns="http://www.w3.org/2000/svg"><path fill-rule="evenodd" clip-rule="evenodd" d="M14.663 3.7735A9 9 0 1 0 20 11.9995v-.9194c0-.5523.4477-1 1-1s1 .4477 1 1v.92a11.0002 11.0002 0 0 1-20.228 5.9814A11.0002 11.0002 0 0 1 8.5759 1.2648a11 11 0 0 1 6.9012.6819c.5045.2248.7312.816.5064 1.3204-.2247.5045-.8159.7312-1.3204.5064z" fill="#000"/><path fill-rule="evenodd" clip-rule="evenodd" d="M21.7068 3.2925c.3907.3904.391 1.0235.0007 1.4143l-10 10.01a1.0005 1.0005 0 0 1-1.4146.0003l-3-3c-.3905-.3905-.3905-1.0237 0-1.4142.3905-.3905 1.0237-.3905 1.4142 0l2.2925 2.2925 9.2929-9.3021c.3904-.3908 1.0235-.391 1.4143-.0008z" fill="#000"/></svg>