<svg width="130" height="28" viewBox="0 0 130 28" fill="none" xmlns="http://www.w3.org/2000/svg"><path d="M52.0898 22v-5.6289h-1.6543L48.126 22h-3.4053l2.7715-6.7676c-1.2891-.8952-1.9336-2.2415-1.9336-4.039 0-1.547.4333-2.7393 1.2998-3.5772.8737-.8379 2.109-1.2568 3.7061-1.2568h4.6943V22h-3.169zm-3.3623-10.5596c0 .8666.154 1.4968.462 1.8907.3079.3867.7877.58 1.4394.58h1.4609V8.9912h-1.5683c-1.196 0-1.794.8164-1.794 2.4492zm9.0987 9.0127c0-.487.1611-.888.4834-1.2031.3294-.3151.7555-.4727 1.2783-.4727.5085 0 .931.1576 1.2676.4727.3366.3079.5049.709.5049 1.2031 0 .5013-.1719.9059-.5157 1.2139-.3366.3008-.7555.4512-1.2568.4512-.5085 0-.931-.154-1.2676-.462-.3294-.3079-.4941-.7089-.4941-1.2031zm10.8603-4.834h-1.375V22h-3.1582V6.3594h3.1582v6.2519h1.0635l2.7178-6.252h3.8457l-3.8242 7.2833L75.3682 22h-3.7598l-2.9219-6.3809zm7.0576.1934c0-1.7617.4154-3.1439 1.2461-4.1465.8308-1.0026 1.9802-1.5039 3.4483-1.5039 1.4824 0 2.639.5013 3.4697 1.5039.8307 1.0026 1.2461 2.3919 1.2461 4.168v.7412c0 1.7689-.4118 3.151-1.2354 4.1465-.8235.9954-1.9765 1.4931-3.4589 1.4931-1.4896 0-2.6498-.4977-3.4805-1.4931-.8236-1.0026-1.2354-2.3919-1.2354-4.168v-.7412zm3.0508.7627c0 2.0768.555 3.1152 1.6651 3.1152 1.024 0 1.5755-.8665 1.6543-2.5996l.0107-1.2783c0-1.0599-.1468-1.8441-.4404-2.3525-.2936-.5157-.709-.7735-1.2461-.7735-.5156 0-.9203.2578-1.2139.7735-.2864.5084-.4297 1.2926-.4297 2.3525v.7627zm17.3164-.0215c0 1.8262-.3151 3.2262-.9453 4.2002-.623.974-1.554 1.4609-2.793 1.4609-.9453 0-1.7044-.3831-2.2773-1.1494v5.4034h-3.04V10.377h2.8144l.1074 1.0634c.5801-.8522 1.3715-1.2783 2.3741-1.2783 1.2389 0 2.1699.4512 2.7929 1.3535.6302.9024.9525 2.2845.9668 4.1465v.8916zm-3.0293-.7627c0-1.1243-.1253-1.9193-.3759-2.3848-.2435-.4654-.6589-.6982-1.2461-.6982-.6231 0-1.0778.2614-1.3643.7842v5.4463c.2721.5013.7341.7519 1.3857.7519.6016 0 1.017-.2542 1.2461-.7627.2364-.5084.3545-1.2998.3545-2.374v-.7627zm4.5118.0215c0-1.7617.4153-3.1439 1.246-4.1465.8308-1.0026 1.9802-1.5039 3.4482-1.5039 1.483 0 2.639.5013 3.47 1.5039.831 1.0026 1.246 2.3919 1.246 4.168v.7412c0 1.7689-.412 3.151-1.235 4.1465-.824.9954-1.977 1.4931-3.459 1.4931-1.49 0-2.6502-.4977-3.4809-1.4931-.8236-1.0026-1.2353-2.3919-1.2353-4.168v-.7412zm3.0512.7627c0 2.0768.555 3.1152 1.665 3.1152 1.024 0 1.575-.8665 1.654-2.5996l.011-1.2783c0-1.0599-.147-1.8441-.441-2.3525-.293-.5157-.709-.7735-1.246-.7735-.516 0-.92.2578-1.214.7735-.286.5084-.429 1.2926-.429 2.3525v.7627zM117.66 22h-3.04v-4.458h-2.675V22h-3.05V10.377h3.05v4.6513h2.675V10.377h3.04V22zm7.745 0c-.086-.179-.172-.4798-.258-.9023-.544.7447-1.281 1.1171-2.212 1.1171-.974 0-1.784-.3222-2.428-.9668-.638-.6445-.956-1.4788-.956-2.5029 0-1.2174.387-2.1592 1.16-2.8252.781-.666 1.901-1.0062 3.362-1.0205h.924v-.9346c0-.5227-.089-.8916-.268-1.1064-.18-.2148-.441-.3223-.785-.3223-.759 0-1.138.444-1.138 1.3321h-3.04c0-1.0743.401-1.9587 1.203-2.6534.809-.7018 1.83-1.0527 3.061-1.0527 1.275 0 2.26.333 2.954.999.702.6589 1.053 1.6042 1.053 2.836v5.4677c.014 1.0026.158 1.7868.43 2.3526V22h-3.062zm-1.794-2.1699c.337 0 .623-.0681.86-.2041.236-.1361.411-.2972.526-.4834v-2.417h-.73c-.516 0-.924.1647-1.225.4941-.294.3295-.44.7699-.44 1.3213 0 .8594.336 1.2891 1.009 1.2891z" fill="#000"/><path d="M2.0417 9.1669L5 21.6669h25l2.9583-12.5a.2122.2122 0 0 0-.2595-.2394.2126.2126 0 0 0-.1155.0727c-1.7916 2.9584-6.9583 8.75-14.9583-3.75a.196.196 0 0 0-.3333 0c-7.9584 12.5-13.125 6.7084-14.9584 3.75-.0833-.2083-.375-.0833-.2916.1667zM1.875 7.5c1.0355 0 1.875-.8395 1.875-1.875 0-1.0355-.8395-1.875-1.875-1.875C.8395 3.75 0 4.5895 0 5.625 0 6.6605.8395 7.5 1.875 7.5zM33.125 7.5C34.1605 7.5 35 6.6605 35 5.625c0-1.0355-.8395-1.875-1.875-1.875-1.0355 0-1.875.8395-1.875 1.875 0 1.0355.8395 1.875 1.875 1.875zM17.5 3.75c1.0355 0 1.875-.8395 1.875-1.875C19.375.8395 18.5355 0 17.5 0c-1.0355 0-1.875.8395-1.875 1.875 0 1.0355.8395 1.875 1.875 1.875z" fill="#FC0"/><path d="M5 24h25l-.4907 1.5898A2 2 0 0 1 27.5983 27H7.4017a2 2 0 0 1-1.911-1.4102L5 24z" fill="#000"/></svg>