<svg width="24" height="24" viewBox="0 0 24 24" fill="none" xmlns="http://www.w3.org/2000/svg"><path fill-rule="evenodd" clip-rule="evenodd" d="M12 0C5.3726 0 0 5.3726 0 12s5.3726 12 12 12 12-5.3726 12-12S18.6274 0 12 0zM9.3616 5.6387c.6827-.0311.9008-.0387 2.639-.0387h-.002c1.7387 0 1.956.0076 2.6387.0387.6813.0312 1.1467.139 1.5547.2973.4213.1633.7773.382 1.1333.738.356.3557.5747.7128.7387 1.1338.1573.4069.2653.872.2973 1.5533.0307.6827.0387.9008.0387 2.639 0 1.7381-.008 1.9557-.0387 2.6384-.032.6811-.14 1.1463-.2973 1.5533-.164.4208-.3827.7779-.7387 1.1337-.3556.356-.7121.5752-1.1329.7386-.4072.1583-.8728.2662-1.5542.2974-.6826.031-.9001.0386-2.6384.0386-1.738 0-1.956-.0076-2.6387-.0386-.6812-.0312-1.1464-.1391-1.5536-.2974-.4207-.1634-.7778-.3826-1.1334-.7386-.3558-.3558-.5745-.7129-.7381-1.1338-.1581-.4069-.266-.872-.2973-1.5533-.031-.6827-.0387-.9002-.0387-2.6383 0-1.7382.008-1.9565.0385-2.6391.0307-.6811.1387-1.1463.2974-1.5534.164-.4208.3826-.7778.7386-1.1336.3558-.3559.7128-.5745 1.1338-.738.407-.1583.872-.2661 1.5533-.2973z" fill="#000"/><path fill-rule="evenodd" clip-rule="evenodd" d="M11.4265 6.753h.5741c1.7088 0 1.9114.0062 2.5862.0369.624.0285.9627.1328 1.1883.2204.2986.116.5116.2546.7354.4786.224.224.3627.4374.479.736.0876.2254.192.564.2204 1.188.0306.6747.0373.8774.0373 2.5854s-.0067 1.9107-.0373 2.5854c-.0286.624-.1328.9627-.2204 1.188-.116.2987-.255.5113-.479.7352-.224.224-.4366.3627-.7354.4787-.2254.088-.5643.192-1.1883.2205-.6747.0307-.8774.0373-2.5862.0373-1.7089 0-1.9115-.0066-2.5861-.0373-.624-.0288-.9627-.1331-1.1884-.2207-.2987-.116-.512-.2546-.736-.4786-.224-.224-.3627-.4368-.479-.7356-.0876-.2254-.192-.564-.2204-1.1881-.0307-.6746-.0368-.8773-.0368-2.5864 0-1.7091.0061-1.9107.0368-2.5853.0285-.624.1328-.9627.2204-1.1883.116-.2987.255-.512.479-.736.224-.224.4373-.3627.736-.479.2256-.088.5644-.192 1.1884-.2206.5904-.0267.8192-.0347 2.012-.036v.0016zm3.9903 1.0629a.7679.7679 0 1 0 0 1.5357c.424 0 .768-.344.768-.768 0-.424-.344-.768-.768-.768v.0003zM8.7138 12c0-1.8151 1.4716-3.2866 3.2866-3.2867 1.8151 0 3.2863 1.4716 3.2863 3.2867 0 1.8151-1.471 3.286-3.2861 3.286-1.8151 0-3.2867-1.4709-3.2867-3.286z" fill="#000"/><path fill-rule="evenodd" clip-rule="evenodd" d="M12.0005 9.8667c1.1782 0 2.1334.9551 2.1334 2.1334 0 1.1781-.9552 2.1333-2.1334 2.1333s-2.1333-.9552-2.1333-2.1333c0-1.1783.9551-2.1334 2.1333-2.1334z" fill="#000"/></svg>