<svg width="24" height="24" viewBox="0 0 24 24" fill="none" xmlns="http://www.w3.org/2000/svg"><g clip-path="url(#clip0)"><path d="M20.4823 3.5164c-4.6886-4.6885-12.285-4.6885-16.9687 0-4.509 4.509-4.6786 11.7215-.5037 16.435l.1246.0998c-.4538.9776-1.232 2.1847-2.469 2.7932-.409.1995-.3142.808.1347.8779 1.3517.2095 3.292-.025 5.1026-1.3916l.025.0199c4.5988 2.7034 10.6141 2.0849 14.5645-1.8655 4.6786-4.6836 4.6786-12.285-.01-16.9687zm-4.5289 13.6169c-.2644.2693-.5437.5187-.7931.7981-.3641.409-.823.5386-1.3417.5087-.7582-.0399-1.4615-.2943-2.1348-.6235-1.5014-.7282-2.7833-1.7407-3.8557-3.0176-.793-.9427-1.4465-1.9702-1.8804-3.1324-.2095-.5636-.3591-1.1372-.3142-1.7458.0299-.374.1696-.6933.4439-.9576.2993-.2843.5786-.5786.8729-.8679.384-.379.8629-.374 1.247 0 .2393.2344.4688.4689.7032.7033.2295.2294.459.4539.6834.6833.399.404.399.8729 0 1.2769-.2843.2893-.5687.5786-.863.8579-.0748.0748-.0847.1347-.0448.2295.1895.4589.4688.8679.778 1.2469.6236.7682 1.3318 1.4515 2.1798 1.9802.1795.1147.379.1945.5686.2993.0948.0549.1646.0349.2394-.0449.2843-.2943.5786-.5836.8679-.8729.3841-.3791.8629-.3791 1.242 0 .4688.4639.9327.9278 1.3966 1.3966.399.409.399.8879.005 1.2819zm-4.4243-7.7511l.1497-1.0674c1.0325.1446 1.9702.6135 2.7084 1.3517.7033.7033 1.1621 1.5861 1.3267 2.5587l-1.0624.1846c-.1297-.7532-.4838-1.4365-1.0275-1.9802-.5736-.5736-1.2968-.9377-2.0949-1.0474zm5.9206 2.843c-.2394-1.3966-.8978-2.6635-1.9004-3.671-1.0574-1.0575-2.3991-1.7258-3.8805-1.9353l.1496-1.0674c1.7109.2394 3.2671 1.0125 4.4891 2.2395 1.1622 1.1622 1.9253 2.6336 2.2046 4.2497l-1.0624.1845z" fill="#000"/></g><defs><clipPath id="clip0"><path fill="#fff" d="M0 0h24v24H0z"/></clipPath></defs></svg>