<svg width="24" height="24" viewBox="0 0 24 24" fill="none" xmlns="http://www.w3.org/2000/svg"><path fill-rule="evenodd" clip-rule="evenodd" d="M12 0C5.3726 0 0 5.3726 0 12s5.3726 12 12 12 12-5.3726 12-12S18.6274 0 12 0zm.9771 15.7881c-.1184.1247-.3494.1499-.3494.1499h-.765s-1.6878.0996-3.1747-1.4195c-1.6215-1.6574-3.0532-4.9457-3.0532-4.9457s-.0827-.2157.0069-.3196c.1007-.1174.3756-.1247.3756-.1247l1.8287-.0117s.1721.0276.2955.1167c.102.0738.159.2108.159.2108s.2955.7338.6868 1.3975c.7644 1.296 1.12 1.5793 1.3791 1.4404.3782-.2022.2649-1.8319.2649-1.8319s.0068-.5912-.1904-.8548c-.1527-.204-.4407-.2636-.5678-.2802-.1033-.0135.0657-.2483.2849-.3534.3293-.1579.9102-.1671 1.597-.1604.5353.0056.6893.0381.8984.088.4853.1149.4701.4833.4374 1.2783-.0097.2378-.0211.5138-.0211.8325 0 .0716-.0021.148-.0043.2265-.0113.4074-.0243.8738.2491 1.0474.1402.0885.4827.0129 1.3398-1.4152.4063-.6772.7105-1.473.7105-1.473s.067-.142.1703-.2028c.1058-.0621.2485-.043.2485-.043l1.9245-.0117s.5785-.0683.6718.1886c.0983.2686-.216.8966-1.0023 1.9253-.7459.9761-1.1089 1.3355-1.0756 1.6534.0244.2322.2603.4423.7131.8545.9452.8614 1.1985 1.3146 1.2594 1.4235a.4317.4317 0 0 0 .0115.02c.4238.6902-.4702.7442-.4702.7442l-1.7097.0234s-.3669.0713-.8502-.2544c-.2532-.1705-.5006-.4489-.7362-.7141-.3599-.405-.6923-.7791-.9761-.6907-.4764.1487-.462 1.1559-.462 1.1559s.0038.2157-.1045.33z" fill="#000"/></svg>